<?xml version="1.0" encoding="utf-8"?><svg xmlns="http://www.w3.org/2000/svg" xmlns:xlink="http://www.w3.org/1999/xlink"><symbol viewBox="0 0 52 52" id="delivery-logo" xmlns="http://www.w3.org/2000/svg"><path d="M37.231 30.412a5.552 5.552 0 00-5.546 5.546 5.552 5.552 0 005.546 5.546 5.552 5.552 0 005.546-5.546 5.552 5.552 0 00-5.546-5.546zm0 8.32a2.776 2.776 0 01-2.773-2.774 2.776 2.776 0 012.773-2.773 2.776 2.776 0 012.773 2.773 2.776 2.776 0 01-2.773 2.773zm-18.949-8.32a5.552 5.552 0 00-5.547 5.546 5.552 5.552 0 005.547 5.546 5.552 5.552 0 005.546-5.546 5.553 5.553 0 00-5.546-5.546zm0 8.32a2.776 2.776 0 01-2.774-2.774 2.776 2.776 0 012.774-2.773 2.776 2.776 0 012.773 2.773 2.776 2.776 0 01-2.773 2.773zm22.684-24.195a1.387 1.387 0 00-1.24-.764h-7.302v2.773h6.448l3.775 7.51 2.479-1.246-4.16-8.273z"/><path d="M33.072 34.618H22.58v2.773h10.492v-2.773zm-18.95 0H9.315a1.386 1.386 0 100 2.773h4.807a1.386 1.386 0 100-2.773zm33.587-8.477L44.98 22.63a1.385 1.385 0 00-1.094-.537H33.81v-9.705c0-.766-.62-1.387-1.387-1.387H9.315a1.386 1.386 0 100 2.773h21.723v9.706c0 .766.62 1.386 1.386 1.386h10.784l2.019 2.602v7.15H41.39a1.386 1.386 0 100 2.774h5.222c.766 0 1.387-.621 1.387-1.387v-9.012c0-.308-.103-.608-.291-.85zM14.03 27.593H7.65a1.386 1.386 0 100 2.773h6.378a1.386 1.386 0 100-2.773zm3.188-5.454H5.387a1.387 1.387 0 000 2.773h11.831a1.386 1.386 0 100-2.773z"/><path d="M19.483 16.685H7.651a1.386 1.386 0 100 2.773h11.832a1.386 1.386 0 100-2.773z"/></symbol><symbol viewBox="0 0 52 52" id="design-logo" xmlns="http://www.w3.org/2000/svg"><path d="M47.622 4.378a1.287 1.287 0 00-1.028-.373c-.159.015-3.953.376-9.156 2.122C20.504 11.343 9.296 27.763 4.085 39.642c-.328.784.334 1.834 1.327 1.747l5.756-.56-.56 5.756c-.062.827.742 1.699 1.747 1.327 20.68-9.423 33.293-23.845 35.64-42.506a1.288 1.288 0 00-.373-1.028zM30.96 32.707a76.21 76.21 0 01-6.62 5.373V16.134a41.37 41.37 0 016.62-4.409v20.982zm-12.578 9.272a64.47 64.47 0 01-4.995 2.66l.498-5.12c.074-.665-.542-1.508-1.408-1.407l-5.117.498c1.73-3.668 6.385-12.207 14.403-20.154v21.41a73.758 73.758 0 01-3.38 2.113zm25.023-28.166c-1.514 4.485-4.453 10.961-9.868 16.428v-19.8c3.528-1.703 8.916-3.23 11.657-3.635a46.992 46.992 0 01-1.789 7.007z"/></symbol><symbol viewBox="0 0 24 24" id="fb-icon" xmlns="http://www.w3.org/2000/svg"><path d="M24 22.692c0 .72-.589 1.308-1.308 1.308h-6.147v-9.286h3.139l.458-3.597h-3.597V8.828c0-1.046.261-1.765 1.766-1.765h1.896v-3.27c-.327-.065-1.439-.13-2.812-.13-2.746 0-4.643 1.7-4.643 4.773v2.681H9.613v3.597h3.139V24H1.308C.588 24 0 23.411 0 22.692V1.308C0 .588.589 0 1.308 0h21.384C23.412 0 24 .589 24 1.308v21.384z"/></symbol><symbol viewBox="0 0 68 68" id="fit-logo" xmlns="http://www.w3.org/2000/svg"><path d="M53.836 60.031h-5.977v-4.25h2.663a1.992 1.992 0 100-3.984H47.86v-3.984h5.32a1.992 1.992 0 000-3.985h-5.32v-3.984h2.663a1.992 1.992 0 000-3.985H47.86v-3.984h5.32a1.992 1.992 0 000-3.984h-5.32v-3.985h2.663a1.992 1.992 0 100-3.984H47.86v-3.985h5.32a1.992 1.992 0 000-3.984h-5.32V7.97h2.663a1.992 1.992 0 000-3.985H47.86V1.992a1.992 1.992 0 00-3.984 0v58.04h-7.193L37.778 42.5h.127c1.1 0 1.992-.892 1.992-1.992V27.223c0-4.422-2.899-8.179-6.896-9.474a5.978 5.978 0 002.919-5.132 5.983 5.983 0 00-5.977-5.976 5.983 5.983 0 00-5.977 5.976 5.979 5.979 0 002.916 5.13c-3.999 1.294-6.9 5.052-6.9 9.476v13.285c0 1.1.892 1.992 1.992 1.992h.12l1.096 17.531h-9.198c-1.1 0-1.992.892-1.992 1.992v3.985a1.992 1.992 0 003.984 0v-1.992h35.86v1.992a1.992 1.992 0 103.984 0v-3.985c0-1.1-.892-1.992-1.992-1.992zM29.943 10.625c1.098 0 1.992.894 1.992 1.992a1.994 1.994 0 01-1.992 1.992 1.994 1.994 0 01-1.992-1.992c0-1.098.893-1.992 1.992-1.992zm-5.977 16.598a5.98 5.98 0 015.974-5.973 5.98 5.98 0 015.973 5.973v11.293H23.966V27.223zm2.12 15.277h7.7L32.69 60.031h-5.507L26.087 42.5z"/></symbol><symbol viewBox="0 0 24 24" id="ig-icon" xmlns="http://www.w3.org/2000/svg"><path d="M21.123 0H2.877C1.307 0 0 1.243 0 2.812v18.376C0 22.758 1.308 24 2.877 24h18.246C22.693 24 24 22.758 24 21.188V2.812C24 1.242 22.692 0 21.123 0zm-3.859 3.728c0-.393.327-.72.72-.72h2.288c.393 0 .72.327.72.72V5.95c0 .392-.327.72-.72.72H18.05a.726.726 0 01-.72-.72l-.065-2.223zM12.033 7.39c2.55 0 4.643 2.027 4.643 4.577s-2.093 4.578-4.643 4.578-4.643-2.027-4.643-4.578c0-2.485 2.092-4.577 4.643-4.577zm9.678 13.602c0 .392-.327.72-.72.72H3.009a.726.726 0 01-.72-.72V9.744h2.944c-.393.588-.524 1.635-.524 2.289 0 3.989 3.27 7.259 7.325 7.259 4.054 0 7.324-3.27 7.324-7.26 0-.653-.065-1.7-.589-2.288h3.009l-.066 11.248z"/></symbol><symbol viewBox="0 0 52 52" id="materials-logo" xmlns="http://www.w3.org/2000/svg"><g clip-path="url(#fclip0_2_1032)"><path d="M46.71 19.555h-9.224l.003-.024a10.462 10.462 0 002.555-3.267 1.289 1.289 0 00-1.153-1.866H36.9a11.404 11.404 0 00-1.882-3.367 10.464 10.464 0 00-.504-4.111 1.289 1.289 0 00-2.135-.504l-1.41 1.41a11.393 11.393 0 00-3.703-1.05c-.973-1.145-2.094-2.052-3.269-2.64a1.29 1.29 0 00-1.865 1.153v2.076a11.405 11.405 0 00-3.368 1.882 10.459 10.459 0 00-4.11.504 1.29 1.29 0 00-.505 2.134l1.41 1.41A11.394 11.394 0 0014.51 17a10.504 10.504 0 00-2.162 2.554H5.29c-.712 0-1.289.577-1.289 1.289V26c0 .712.577 1.29 1.29 1.29h1.374v19.42c0 .712.577 1.29 1.29 1.29h5.155a1.29 1.29 0 001.29-1.29v-4.37L26 37.702l11.602 4.64v4.37c0 .712.577 1.289 1.289 1.289h5.156a1.29 1.29 0 001.289-1.29V27.29h1.375A1.29 1.29 0 0048 26v-5.156a1.29 1.29 0 00-1.29-1.29zm-30.172-.882a1.29 1.29 0 00.498-.943 8.877 8.877 0 011.22-4.018 1.29 1.29 0 00-.199-1.566l-.347-.347a8.36 8.36 0 011.308.064 1.29 1.29 0 001.018-.316 8.891 8.891 0 013.709-1.982c.569-.147.966-.66.966-1.247v-.51c.307.302.602.635.882.996.228.294.571.475.942.498a8.876 8.876 0 014.018 1.22 1.29 1.29 0 001.567-.199l.347-.347c.013.43-.008.867-.064 1.308-.047.369.068.74.315 1.018a8.892 8.892 0 011.982 3.709c.147.568.66.966 1.248.966h.486c-.296.315-.62.609-.972.882a1.29 1.29 0 00-.498.942 9.16 9.16 0 01-.077.754h-5.242A3.872 3.872 0 0026 14.399a3.872 3.872 0 00-3.645 5.156h-6.789c.296-.315.62-.61.972-.882zm10.751-.407A1.29 1.29 0 0126 19.555a1.29 1.29 0 01-1.29-1.29 1.29 1.29 0 012.578 0zM11.82 45.422H9.242V27.289h2.578v18.133zm2.578-5.857V33.06l8.131 3.252-8.13 3.253zm23.204 0l-8.131-3.252 8.13-3.253v6.505zm0-9.281L26 34.923l-11.602-4.64v-2.995h23.204v2.994zm5.156 15.138H40.18V27.289h2.578v18.133zm2.664-20.711H6.578v-2.578h38.844v2.578z"/></g><defs><clipPath id="fclip0_2_1032"><path transform="translate(4 4)" d="M0 0h44v44H0z"/></clipPath></defs></symbol><symbol viewBox="0 0 68 68" id="strong-logo" xmlns="http://www.w3.org/2000/svg"><path d="M35.875 32.181V21.817h4.15c9.893 0 17.942-8.049 17.942-17.942 0-1.035-.84-1.875-1.875-1.875h-6.027C43.037 2 36.94 6.063 34 11.962 31.058 6.062 24.962 2 17.933 2h-6.025c-1.035 0-1.875.84-1.875 1.875 0 9.893 8.049 17.942 17.942 17.942h4.15V32.18C15.325 33.152 2 47.081 2 64.125 2 65.16 2.84 66 3.875 66h60.25C65.16 66 66 65.16 66 64.125c0-17.044-13.325-30.973-30.125-31.944zM50.065 5.75h4.028c-.92 6.942-6.879 12.317-14.068 12.317h-4.027c.92-6.943 6.877-12.317 14.067-12.317zm-22.09 12.317c-7.19 0-13.148-5.375-14.068-12.317h4.026c7.19 0 13.148 5.375 14.069 12.317h-4.027zM5.81 62.25c.929-14.33 11.435-22.005 18.282-24.584v4.712c0 .572-.223 1.11-.628 1.515l-6.025 6.025a5.898 5.898 0 000 8.33l4.001 4.002H5.81zm20.933 0l-6.652-6.653a2.14 2.14 0 010-3.028l6.025-6.025a5.853 5.853 0 001.726-4.166v-5.83A28.366 28.366 0 0134 35.876c4.914 0 9.677 1.259 13.906 3.659L37.522 49.918a5.888 5.888 0 000 8.33l4.001 4.002h-14.78zm20.084 0l-6.653-6.653a2.14 2.14 0 010-3.028L51.1 41.643A28.253 28.253 0 0162.188 62.25H46.827z"/></symbol><symbol viewBox="0 0 24 24" id="tw-icon" xmlns="http://www.w3.org/2000/svg"><g clip-path="url(#hclip0_2_1214)"><path d="M23.346 2.42c-.98.588-2.027.98-3.139 1.242a4.838 4.838 0 00-3.597-1.57c-2.746 0-4.904 2.29-4.904 5.036 0 .392.065.785.13 1.177C7.716 8.044 4.12 6.016 1.7 2.943a5.466 5.466 0 00-.654 2.55c0 1.766.85 3.27 2.224 4.185-.785 0-1.57-.261-2.224-.653v.13c0 2.42 1.7 4.513 3.924 4.97-.392.131-.85.197-1.308.197-.327 0-.654 0-.915-.066.654 2.027 2.42 3.466 4.577 3.532-1.7 1.373-3.793 2.157-6.147 2.157-.392 0-.785 0-1.177-.065a13.597 13.597 0 007.52 2.289c9.09 0 13.995-7.717 13.995-14.387v-.654c.98-.72 1.831-1.57 2.485-2.616-.85.393-1.831.654-2.812.785.98-.72 1.766-1.7 2.158-2.877z"/></g><defs><clipPath id="hclip0_2_1214"><path d="M0 0h24v24H0z"/></clipPath></defs></symbol><symbol viewBox="0 0 68 68" id="unique-logo" xmlns="http://www.w3.org/2000/svg"><path d="M67.58 64.784c-.105-.135-2.63-3.336-7.98-6.493-2.61-1.541-6.209-3.24-10.814-4.482a69.333 69.333 0 002.564-13.706c.541-6.407.157-12.667-1.142-18.607-1.629-7.443-4.704-14.392-9.14-20.655a1.992 1.992 0 00-3.251 0 57.452 57.452 0 00-3.787 6.122A57.406 57.406 0 0030.243.84a1.992 1.992 0 00-3.251 0c-4.437 6.262-7.512 13.212-9.14 20.655-1.3 5.94-1.684 12.2-1.143 18.607a69.254 69.254 0 002.646 13.981c-4.245 1.204-7.67 2.76-10.234 4.18C3.467 61.392.623 64.55.504 64.682A1.992 1.992 0 001.992 68h64.016a1.992 1.992 0 001.572-3.216zM20.963 26.958l13.363-9.08a52.198 52.198 0 011.046 3.84L20.53 31.804c.073-1.56.212-3.18.433-4.846zm1.01-5.504a52.327 52.327 0 016.646-15.88 52.556 52.556 0 014.322 8.428l-10.967 7.452zm-1.477 15.19L36.18 25.987c.645 4.373.776 8.924.388 13.64a65.613 65.613 0 01-2.244 12.389 57.109 57.109 0 00-11.085 1.126 65.327 65.327 0 01-2.558-13.375 61.201 61.201 0 01-.184-3.123zm14.177 19.353c10.801 0 18.316 3.054 22.718 5.617a33.152 33.152 0 013.58 2.402H7.435c4.744-3.346 13.779-8.019 27.24-8.019zm4.771-50.423c6.314 9.995 8.986 21.436 7.947 34.053a65.47 65.47 0 01-2.508 13.298 54.31 54.31 0 00-6.45-.792 69.732 69.732 0 002.092-12.03c.541-6.407.157-12.667-1.142-18.607a56.366 56.366 0 00-3.169-9.964 52.205 52.205 0 013.23-5.958z"/></symbol><symbol viewBox="0 0 24 24" id="vk-icon" xmlns="http://www.w3.org/2000/svg"><path d="M23.87 17.526c0-.066-.066-.13-.066-.13-.393-.72-1.243-1.701-2.42-2.748-.523-.523-.85-.85-.98-1.046-.262-.327-.328-.654-.197-.98.13-.262.458-.786 1.112-1.636.327-.457.588-.784.785-1.046C23.541 8.044 24.195 6.801 24 6.278l-.065-.13c-.066-.197-.197-.262-.393-.328-.196-.065-.458-.065-.785 0H18.9c-.13 0-.13.066-.13.066h-.066l-.065.065c-.066 0-.066.065-.131.13-.066.066-.066.132-.131.197-.392.98-.85 1.962-1.308 2.812-.327.523-.588.98-.85 1.373s-.458.654-.654.85l-.458.458c-.13.13-.261.13-.327.13-.065 0-.13-.065-.196-.065-.13-.065-.196-.196-.261-.327-.066-.13-.131-.261-.131-.457s-.066-.393-.066-.523V6.8c0-.261 0-.458-.065-.588 0-.131-.065-.262-.13-.393-.066-.13-.132-.261-.262-.327l-.393-.196c-.458-.13-.98-.13-1.7-.13-1.57 0-2.55.065-3.008.326-.196.066-.327.196-.458.393-.13.196-.196.261-.065.327.523.065.85.261 1.046.523l.065.13c.066.131.131.327.197.589.065.262.065.589.13.916a6.279 6.279 0 010 1.569c-.065.458-.065.785-.13.981-.066.261-.066.458-.197.588l-.13.262c0 .065-.066.065-.066.065a.583.583 0 01-.327.066c-.13 0-.261-.066-.392-.196-.196-.131-.327-.262-.523-.458a3.167 3.167 0 01-.589-.85c-.196-.393-.458-.785-.72-1.308l-.195-.392c-.131-.262-.327-.589-.524-1.047-.196-.458-.392-.85-.588-1.308-.066-.13-.196-.261-.327-.392h-.066c-.065-.065-.13-.065-.196-.13-.065 0-.196-.066-.261-.066H.85c-.393 0-.655.13-.786.261v.066C0 6.147 0 6.212 0 6.278c0 .065 0 .196.065.327a54.383 54.383 0 001.635 3.4c.589 1.112 1.112 1.962 1.504 2.616.458.654.85 1.308 1.308 1.897.458.588.72.98.916 1.111.13.197.261.262.327.393l.327.327c.196.196.523.457.85.72.392.26.785.522 1.308.85a6.105 6.105 0 001.635.653c.654.196 1.242.262 1.83.196h1.44a1 1 0 00.653-.261l.066-.066c.065-.065.065-.13.065-.261s.066-.196.066-.327c0-.327 0-.654.065-.981.065-.262.13-.523.196-.654.066-.13.196-.262.262-.392.13-.131.196-.131.196-.197.065 0 .065-.065.13-.065.197-.065.459 0 .72.196.262.196.523.458.785.72.261.261.523.588.85.98.327.328.654.654.85.785l.262.131c.196.13.392.196.654.262.261.065.523.13.719.065l3.204-.065c.327 0 .589-.066.72-.131.196-.131.261-.196.327-.327.065-.131.065-.262 0-.458 0 0 0-.13-.066-.196z"/></symbol></svg>