<?xml version="1.0" standalone="no"?>
<!DOCTYPE svg PUBLIC "-//W3C//DTD SVG 20010904//EN"
 "http://www.w3.org/TR/2001/REC-SVG-20010904/DTD/svg10.dtd">
<svg version="1.0" xmlns="http://www.w3.org/2000/svg"
 width="700.000000pt" height="700.000000pt" viewBox="0 0 700.000000 700.000000"
 preserveAspectRatio="xMidYMid meet">
<metadata>
Created by potrace 1.14, written by Peter Selinger 2001-2017
</metadata>
<g transform="translate(0.000000,700.000000) scale(0.100000,-0.100000)"
fill="#000000" stroke="none">
<path d="M1860 5997 c-3 -3 -23 -7 -45 -11 -77 -11 -100 -17 -172 -48 -154
-64 -270 -179 -326 -323 -29 -75 -32 -223 -7 -313 33 -120 84 -197 308 -465
250 -299 301 -390 307 -549 6 -130 -32 -226 -121 -307 -168 -154 -453 -100
-510 96 -21 74 -15 182 14 239 44 85 145 150 251 161 31 3 58 7 60 9 10 9 -52
112 -79 132 -61 45 -112 60 -196 57 -102 -3 -174 -30 -244 -94 -210 -187 -214
-549 -10 -734 119 -108 273 -160 470 -161 150 -1 217 9 332 49 205 72 369 221
444 404 31 78 35 100 39 213 4 114 -15 200 -69 313 -53 112 -110 189 -281 380
-104 115 -115 128 -143 165 -15 19 -33 41 -40 48 -21 23 -68 95 -85 132 -24
53 -34 109 -32 176 6 170 114 286 270 287 139 2 221 -89 210 -233 -6 -72 -33
-137 -81 -190 l-37 -41 24 -26 c53 -57 165 -80 241 -49 63 27 119 102 134 177
29 154 -15 288 -126 386 -36 32 -127 79 -190 98 -52 15 -299 33 -310 22z"/>
<path d="M5822 5954 c-145 -48 -239 -129 -302 -260 -33 -67 -74 -205 -94 -314
-2 -14 -23 -110 -45 -214 -23 -104 -43 -198 -45 -210 -2 -11 -14 -64 -25 -116
-11 -52 -23 -113 -27 -135 -3 -22 -8 -43 -10 -46 -2 -5 -18 -76 -48 -225 -3
-10 -14 -62 -25 -114 -11 -52 -22 -106 -25 -120 -2 -14 -20 -97 -39 -185 -19
-88 -38 -179 -42 -202 -4 -23 -12 -46 -18 -51 -7 -5 -55 -23 -107 -41 -209
-72 -325 -151 -371 -256 -40 -91 -39 -219 3 -300 40 -76 154 -156 249 -173
129 -24 319 29 415 117 81 74 147 197 180 338 9 37 18 77 21 88 2 11 7 34 9
50 3 17 14 67 25 112 10 44 21 94 23 110 3 15 24 114 46 218 37 169 49 228 66
315 3 14 14 66 25 115 12 50 22 99 25 110 2 11 29 139 60 285 l56 265 111 0
111 0 12 57 c13 67 19 64 -113 63 -60 -1 -93 2 -93 9 0 36 71 319 88 353 36
70 124 129 180 120 77 -13 106 -51 101 -133 l-3 -48 61 -2 c33 -1 66 2 73 6 9
5 13 37 13 96 0 71 -4 100 -22 141 -27 62 -96 130 -172 169 -47 25 -66 29
-154 30 -83 2 -112 -2 -173 -22z m-787 -2410 c-41 -183 -74 -250 -141 -281
-44 -22 -102 -5 -139 39 -23 27 -26 38 -21 75 11 94 63 158 175 217 64 33 143
66 148 62 1 -1 -9 -51 -22 -112z"/>
<path d="M2758 5229 c-5 -3 -16 -37 -24 -75 -19 -91 -63 -303 -69 -332 -2 -12
-6 -30 -9 -40 -3 -9 -8 -30 -11 -47 -13 -68 -16 -81 -20 -95 -2 -8 -7 -31 -10
-50 -3 -19 -11 -55 -16 -80 -6 -25 -13 -55 -15 -66 -2 -12 -13 -66 -25 -120
-27 -129 -31 -157 -33 -229 -8 -241 113 -379 329 -376 156 2 301 87 401 236
19 28 34 42 34 33 0 -40 44 -147 73 -180 107 -119 319 -120 512 -1 32 20 69
48 82 62 26 30 27 24 10 -44 -25 -97 -41 -90 196 -90 115 0 211 2 215 5 4 3 8
10 9 15 7 47 20 109 77 380 37 171 68 319 70 330 3 11 23 108 45 215 41 193
41 195 78 228 50 44 119 78 165 81 31 2 39 -2 51 -26 8 -15 17 -42 20 -59 7
-48 35 -94 63 -104 59 -23 147 -5 198 40 129 114 79 352 -81 388 -106 24 -213
-15 -351 -128 -41 -33 -62 -45 -59 -33 5 17 11 44 22 101 2 13 7 32 10 43 4
10 3 19 -2 20 -32 4 -416 3 -422 -1 -4 -3 -28 -106 -55 -230 -123 -583 -159
-747 -174 -785 -25 -64 -77 -140 -118 -171 -33 -26 -45 -29 -111 -29 -67 0
-76 2 -93 25 -31 41 -30 98 4 245 2 11 20 99 40 195 20 96 40 193 46 215 12
53 21 95 26 123 3 13 15 74 29 135 51 239 57 270 46 276 -12 8 -408 7 -415 0
-5 -4 -26 -93 -42 -179 -3 -13 -12 -56 -20 -95 -20 -92 -23 -104 -31 -145 -8
-41 -6 -31 -21 -100 -17 -78 -22 -102 -28 -130 -78 -390 -125 -505 -228 -554
-80 -38 -148 -12 -162 63 -11 58 -8 77 147 800 22 107 43 206 45 220 3 14 9
42 14 61 19 69 31 65 -196 65 -113 0 -210 -3 -216 -6z"/>
<path d="M749 3206 c-3 -3 -59 -11 -149 -21 -14 -1 -61 -8 -105 -14 -44 -7
-95 -14 -113 -16 -19 -2 -35 -5 -38 -7 -3 -4 -42 -177 -58 -258 -2 -14 -11
-57 -20 -95 -8 -39 -17 -82 -20 -95 -2 -14 -16 -78 -30 -142 -55 -250 -77
-354 -117 -545 -23 -109 -42 -205 -44 -213 -2 -8 -15 -67 -29 -130 -81 -366
49 -565 375 -575 204 -6 375 52 501 172 99 93 155 167 210 278 46 92 101 273
113 375 4 30 9 58 12 63 6 10 5 201 -2 257 -11 83 -28 145 -56 200 -49 97
-102 141 -199 166 -98 25 -194 10 -298 -48 -36 -20 -46 -22 -38 -10 3 5 8 24
11 43 3 19 9 52 15 74 5 22 28 126 50 230 22 105 43 201 46 215 16 75 17 100
2 100 -8 0 -17 -2 -19 -4z m82 -814 c39 -15 78 -78 95 -152 3 -14 7 -66 9
-115 10 -301 -150 -692 -298 -733 -45 -12 -109 -7 -147 13 -57 30 -72 99 -45
215 3 14 7 34 9 45 64 315 151 683 164 697 20 21 110 45 155 42 18 -1 44 -6
58 -12z"/>
<path d="M6907 3204 c-1 -1 -27 -5 -57 -8 -30 -4 -71 -8 -90 -11 -19 -3 -53
-7 -75 -10 -127 -17 -178 -25 -183 -29 -1 -2 -4 -12 -6 -22 -2 -11 -27 -127
-56 -259 -28 -132 -53 -249 -56 -260 -2 -11 -9 -45 -15 -74 l-11 -55 -14 39
c-24 70 -94 105 -216 107 -89 1 -118 -3 -188 -22 -333 -92 -610 -577 -595
-1045 4 -129 8 -153 34 -220 78 -202 301 -294 516 -214 90 33 199 119 252 197
16 23 16 23 35 -30 44 -127 137 -189 288 -193 175 -6 314 109 332 275 2 15 -2
24 -9 23 -93 -18 -152 -6 -184 38 -18 26 -20 40 -16 92 3 34 8 75 11 91 4 16
27 124 52 240 24 116 49 229 54 251 15 63 41 188 46 215 2 14 8 43 14 65 5 22
15 67 21 100 7 33 14 65 15 70 2 9 19 87 30 141 2 11 28 131 57 267 50 227 52
245 35 244 -11 -1 -20 -2 -21 -3z m-630 -790 c25 -16 58 -78 49 -93 -3 -4 -7
-20 -10 -36 -8 -44 -31 -156 -40 -192 -3 -10 -25 -115 -50 -233 -25 -118 -53
-238 -61 -267 -16 -55 -76 -138 -122 -170 -91 -64 -193 -47 -236 39 -50 101
-8 433 83 652 50 121 133 243 192 284 60 42 145 49 195 16z"/>
<path d="M2045 2633 c-88 -14 -142 -30 -215 -65 -142 -68 -295 -236 -384 -423
-74 -155 -126 -368 -131 -537 -6 -222 47 -349 179 -433 73 -46 138 -65 242
-72 119 -8 208 9 309 57 244 116 425 432 460 803 1 15 5 30 7 32 6 7 201 55
205 52 2 -2 -8 -39 -21 -83 -22 -74 -36 -133 -52 -224 -14 -82 -11 -244 7
-326 23 -104 49 -155 109 -214 80 -78 174 -111 299 -105 150 7 250 67 386 230
l33 39 7 -29 c34 -159 123 -236 274 -241 125 -3 237 37 360 128 39 30 52 35
47 22 -9 -31 -25 -108 -26 -121 0 -10 49 -13 215 -13 215 0 215 0 219 23 3 12
12 54 20 92 17 77 63 295 70 335 6 30 56 269 61 290 2 8 22 102 44 208 36 172
44 195 68 218 45 40 112 76 154 84 51 10 72 -8 89 -75 21 -79 36 -102 72 -111
152 -34 273 70 263 227 -5 88 -45 153 -116 189 -28 15 -53 18 -106 16 -88 -4
-160 -35 -266 -117 -66 -52 -77 -57 -73 -37 3 12 11 46 16 73 6 28 13 58 16
68 5 16 -10 17 -213 17 l-218 0 -28 -132 c-16 -73 -31 -146 -33 -163 -3 -16
-12 -55 -19 -85 -7 -30 -16 -68 -18 -85 -3 -16 -12 -60 -21 -98 -9 -37 -18
-82 -21 -100 -3 -17 -21 -102 -40 -187 -63 -282 -149 -400 -288 -393 -66 4
-106 59 -101 141 2 40 58 318 135 667 11 50 22 101 24 115 3 14 18 89 35 167
16 79 30 145 30 148 0 3 -97 5 -215 5 l-214 0 -8 -37 c-4 -21 -8 -41 -9 -45
-1 -5 -2 -15 -3 -23 -2 -26 -16 -16 -26 17 -33 110 -278 137 -472 52 -111 -48
-228 -154 -315 -284 -28 -41 -55 -78 -62 -83 -25 -16 -142 -47 -202 -53 -65
-7 -72 -3 -65 38 3 21 -23 168 -36 208 -35 103 -120 190 -217 220 -36 12 -178
20 -221 13z m155 -187 c32 -7 56 -47 65 -109 7 -46 6 -48 -32 -86 -40 -38 -53
-72 -53 -138 0 -36 24 -103 37 -103 4 0 16 -7 26 -14 16 -12 16 -18 2 -95 -47
-244 -162 -464 -269 -515 -43 -20 -108 -21 -146 -1 -55 28 -65 63 -65 225 0
125 4 161 29 265 72 303 191 516 316 569 18 7 40 12 49 10 9 -1 27 -5 41 -8z
m1368 -25 c11 -6 27 -27 37 -47 19 -41 22 -23 -106 -621 -39 -181 -63 -237
-129 -304 -82 -84 -222 -82 -266 3 -62 119 -10 471 107 724 54 118 152 229
221 252 37 12 107 8 136 -7z"/>
</g>
</svg>
